<svg width="24" height="24" viewBox="0 0 24 24" fill="none" xmlns="http://www.w3.org/2000/svg">
  <path d="M20.42 4.58C19.9183 4.07658 19.3222 3.67714 18.6658 3.40459C18.0095 3.13204 17.3058 2.99178 16.595 2.992H7.40501C5.96624 2.99455 4.58722 3.57541 3.5767 4.5922C2.56618 5.60899 1.99367 7.0029 2.00001 8.4425V15.555C1.99367 16.9945 2.56618 18.3885 3.5767 19.4053C4.58722 20.4221 5.96624 21.0029 7.40501 21.0055H16.595C17.3058 21.0057 18.0095 20.8654 18.6658 20.5929C19.3222 20.3203 19.9183 19.9209 20.42 19.4175C20.9224 18.9128 21.3194 18.314 21.5901 17.655C21.8607 16.996 22 16.2898 22 15.5765V8.4205C21.9998 7.70737 21.8604 7.00154 21.5899 6.34285C21.3193 5.68417 20.9224 5.08554 20.42 4.5805V4.58Z" fill="#1F4287"/>
  <rect x="6" y="7" width="12" height="2.5" rx="1.25" fill="#F1B24A"/>
  <rect x="6" y="11" width="12" height="2.5" rx="1.25" fill="#F1B24A"/>
  <rect x="6" y="15" width="12" height="2.5" rx="1.25" fill="#F1B24A"/>
</svg>